# xmcd CD database file
#
# Track frame offsets:
#	187
#	21757
#	42835
#	64415
#	86392
#	108347
#	129852
#	150792
#	172522
#	192512
#	215165
#
# Disc length: 3013 seconds
#
# Revision: 0
# Processed by: cddbd v1.5.1PL0 Copyright (c) Steve Scherf et al.
# Submitted via: CDex 1.51
#
DISCID=830bc30b
DTITLE=和久井映見 - あなたがわたしにくれたもの
DYEAR=1994
DGENRE=Pop
TTITLE0=結婚しないでね
TTITLE1=抱きしめたいのはあなただけ
TTITLE2=プラチナ
TTITLE3=カサノバ・サーカス(on the eclipse of the moon)
TTITLE4=離れても
TTITLE5=おかえりなさい
TTITLE6=むかえにこないで
TTITLE7=さよならを言わなかった
TTITLE8=拒めると思った
TTITLE9=夢で会いましょう
TTITLE10=あなたを想う夜のソネット(the next plateau instrumental)
EXTD=YEAR: 1994
EXTT0=
EXTT1=
EXTT2=
EXTT3=
EXTT4=
EXTT5=
EXTT6=
EXTT7=
EXTT8=
EXTT9=
EXTT10=
PLAYORDER=
